<svg width="24" height="24" viewBox="0 0 24 24" fill="none" xmlns="http://www.w3.org/2000/svg">
<path d="M13.4 2H6C5.46957 2 4.96086 2.21071 4.58579 2.58579C4.21071 2.96086 4 3.46957 4 4V20C4 20.5304 4.21071 21.0391 4.58579 21.4142C4.96086 21.7893 5.46957 22 6 22H18C18.5304 22 19.0391 21.7893 19.4142 21.4142C19.7893 21.0391 20 20.5304 20 20V12.6" stroke="#222222" stroke-width="2" stroke-linecap="round" stroke-linejoin="round"/>
<path d="M2 6H6" stroke="#222222" stroke-width="2" stroke-linecap="round" stroke-linejoin="round"/>
<path d="M2 10H6" stroke="#222222" stroke-width="2" stroke-linecap="round" stroke-linejoin="round"/>
<path d="M2 14H6" stroke="#222222" stroke-width="2" stroke-linecap="round" stroke-linejoin="round"/>
<path d="M2 18H6" stroke="#222222" stroke-width="2" stroke-linecap="round" stroke-linejoin="round"/>
<path d="M21.379 5.62603C21.7773 5.22767 22.0011 4.68739 22.0011 4.12403C22.0011 3.56067 21.7773 3.02038 21.379 2.62203C20.9806 2.22367 20.4403 1.99988 19.877 1.99988C19.3136 1.99988 18.7733 2.22367 18.375 2.62203L13.365 7.63403C13.1272 7.87165 12.9532 8.16536 12.859 8.48803L12.022 11.358C11.9969 11.4441 11.9954 11.5353 12.0176 11.6221C12.0398 11.7089 12.085 11.7882 12.1484 11.8516C12.2118 11.915 12.291 11.9601 12.3779 11.9824C12.4647 12.0046 12.5559 12.0031 12.642 11.978L15.512 11.141C15.8346 11.0468 16.1283 10.8728 16.366 10.635L21.379 5.62603Z" stroke="#222222" stroke-width="2" stroke-linecap="round" stroke-linejoin="round"/>
</svg>
