<svg width="30" height="30 " viewBox="0 0 26 26" fill="none" xmlns="http://www.w3.org/2000/svg">
<path d="M21 10.9999V8.9999C20.9996 8.64918 20.9071 8.30471 20.7315 8.00106C20.556 7.69742 20.3037 7.44526 20 7.2699L13 3.2699C12.696 3.09437 12.3511 3.00195 12 3.00195C11.6489 3.00195 11.304 3.09437 11 3.2699L4 7.2699C3.69626 7.44526 3.44398 7.69742 3.26846 8.00106C3.09294 8.30471 3.00036 8.64918 3 8.9999V16.9999C3.00036 17.3506 3.09294 17.6951 3.26846 17.9987C3.44398 18.3024 3.69626 18.5545 4 18.7299L11 22.7299C11.304 22.9054 11.6489 22.9979 12 22.9979C12.3511 22.9979 12.696 22.9054 13 22.7299L15 21.5899" stroke="#FF6C00" stroke-width="2" stroke-linecap="round" stroke-linejoin="round"/>
<path d="M7.5 5.27002L16.5 10.42" stroke="#FF6C00" stroke-width="2" stroke-linecap="round" stroke-linejoin="round"/>
<path d="M3.28906 8L11.9991 13L20.7091 8" stroke="#FF6C00" stroke-width="2" stroke-linecap="round" stroke-linejoin="round"/>
<path d="M12 23V13" stroke="#FF6C00" stroke-width="2" stroke-linecap="round" stroke-linejoin="round"/>
<path d="M16.9 16.6L16 16.2" stroke="#FF6C00" stroke-width="2" stroke-linecap="round" stroke-linejoin="round"/>
<path d="M16.9 18.8L16 19.2" stroke="#FF6C00" stroke-width="2" stroke-linecap="round" stroke-linejoin="round"/>
<path d="M18.5992 14.9L18.1992 14" stroke="#FF6C00" stroke-width="2" stroke-linecap="round" stroke-linejoin="round"/>
<path d="M18.5992 20.5L18.1992 21.4" stroke="#FF6C00" stroke-width="2" stroke-linecap="round" stroke-linejoin="round"/>
<path d="M21.1988 14L20.7988 14.9" stroke="#FF6C00" stroke-width="2" stroke-linecap="round" stroke-linejoin="round"/>
<path d="M21.1988 21.4L20.7988 20.5" stroke="#FF6C00" stroke-width="2" stroke-linecap="round" stroke-linejoin="round"/>
<path d="M23.4 16.2L22.5 16.6" stroke="#FF6C00" stroke-width="2" stroke-linecap="round" stroke-linejoin="round"/>
<path d="M23.4 19.2L22.5 18.8" stroke="#FF6C00" stroke-width="2" stroke-linecap="round" stroke-linejoin="round"/>
<path d="M19.6992 20.7C21.3561 20.7 22.6992 19.3568 22.6992 17.7C22.6992 16.0431 21.3561 14.7 19.6992 14.7C18.0424 14.7 16.6992 16.0431 16.6992 17.7C16.6992 19.3568 18.0424 20.7 19.6992 20.7Z" stroke="#FF6C00" stroke-width="2" stroke-linecap="round" stroke-linejoin="round"/>
</svg>