<svg width="20" height="20" viewBox="0 0 20 20" fill="none" xmlns="http://www.w3.org/2000/svg">
<path d="M10 13.3334V17.5" stroke="#635C50" stroke-width="2" stroke-linecap="round" stroke-linejoin="round"/>
<path d="M13.334 11.6666V17.5" stroke="#635C50" stroke-width="2" stroke-linecap="round" stroke-linejoin="round"/>
<path d="M16.666 8.33337V17.5" stroke="#635C50" stroke-width="2" stroke-linecap="round" stroke-linejoin="round"/>
<path d="M18.3327 2.5L11.1277 9.705C11.089 9.7438 11.043 9.77459 10.9924 9.79559C10.9418 9.8166 10.8875 9.82741 10.8327 9.82741C10.7779 9.82741 10.7236 9.8166 10.673 9.79559C10.6224 9.77459 10.5764 9.7438 10.5377 9.705L7.79435 6.96167C7.71621 6.88355 7.61025 6.83967 7.49977 6.83967C7.38928 6.83967 7.28332 6.88355 7.20518 6.96167L1.66602 12.5" stroke="#635C50" stroke-width="2" stroke-linecap="round" stroke-linejoin="round"/>
<path d="M3.33398 15V17.5" stroke="#635C50" stroke-width="2" stroke-linecap="round" stroke-linejoin="round"/>
<path d="M6.66602 11.6666V17.5" stroke="#635C50" stroke-width="2" stroke-linecap="round" stroke-linejoin="round"/>
</svg>
