<svg width="20" height="20" viewBox="0 0 20 20" fill="none" xmlns="http://www.w3.org/2000/svg">
<path d="M10 2.5H4.16667C3.72464 2.5 3.30072 2.67559 2.98816 2.98816C2.67559 3.30072 2.5 3.72464 2.5 4.16667V15.8333C2.5 16.2754 2.67559 16.6993 2.98816 17.0118C3.30072 17.3244 3.72464 17.5 4.16667 17.5H15.8333C16.2754 17.5 16.6993 17.3244 17.0118 17.0118C17.3244 16.6993 17.5 16.2754 17.5 15.8333V10" stroke="white" stroke-width="1.7" stroke-linecap="round" stroke-linejoin="round"/>
<path d="M15.3113 2.18744C15.6428 1.85592 16.0924 1.66968 16.5613 1.66968C17.0301 1.66968 17.4798 1.85592 17.8113 2.18744C18.1428 2.51897 18.329 2.9686 18.329 3.43744C18.329 3.90629 18.1428 4.35592 17.8113 4.68744L10.3004 12.1991C10.1026 12.3968 9.85811 12.5415 9.58961 12.6199L7.19544 13.3199C7.12374 13.3409 7.04772 13.3421 6.97537 13.3236C6.90301 13.305 6.83697 13.2674 6.78415 13.2146C6.73133 13.1618 6.69368 13.0957 6.67515 13.0234C6.65661 12.951 6.65786 12.875 6.67878 12.8033L7.37878 10.4091C7.45755 10.1408 7.60255 9.89666 7.80044 9.69911L15.3113 2.18744Z" stroke="white" stroke-width="1.7" stroke-linecap="round" stroke-linejoin="round"/>
</svg>
