<svg width="17" height="17" viewBox="0 0 17 17" fill="none" xmlns="http://www.w3.org/2000/svg">
<path d="M8.5 2.125H3.54167C3.16594 2.125 2.80561 2.27426 2.53993 2.53993C2.27426 2.80561 2.125 3.16594 2.125 3.54167V13.4583C2.125 13.8341 2.27426 14.1944 2.53993 14.4601C2.80561 14.7257 3.16594 14.875 3.54167 14.875H13.4583C13.8341 14.875 14.1944 14.7257 14.4601 14.4601C14.7257 14.1944 14.875 13.8341 14.875 13.4583V8.5" stroke="#353535" stroke-width="1.3" stroke-linecap="round" stroke-linejoin="round"/>
<path d="M13.0139 1.85929C13.2957 1.5775 13.6779 1.41919 14.0764 1.41919C14.4749 1.41919 14.8571 1.5775 15.1389 1.85929C15.4207 2.14108 15.579 2.52328 15.579 2.92179C15.579 3.32031 15.4207 3.7025 15.1389 3.98429L8.75469 10.3692C8.5865 10.5373 8.37871 10.6603 8.15048 10.7269L6.11544 11.3219C6.05449 11.3397 5.98988 11.3408 5.92838 11.325C5.86687 11.3092 5.81074 11.2772 5.76584 11.2324C5.72095 11.1875 5.68895 11.1313 5.67319 11.0698C5.65743 11.0083 5.6585 10.9437 5.67628 10.8828L6.27128 8.84771C6.33823 8.61966 6.46149 8.41212 6.62969 8.24421L13.0139 1.85929Z" stroke="#353535" stroke-width="1.3" stroke-linecap="round" stroke-linejoin="round"/>
</svg>
