<svg width="18" height="18" viewBox="0 0 18 18" fill="none" xmlns="http://www.w3.org/2000/svg">
<g clip-path="url(#clip0_2042_20)">
<path d="M4.5 13.5H3C2.60218 13.5 2.22064 13.342 1.93934 13.0607C1.65804 12.7794 1.5 12.3978 1.5 12V8.25C1.5 7.85218 1.65804 7.47064 1.93934 7.18934C2.22064 6.90804 2.60218 6.75 3 6.75H15C15.3978 6.75 15.7794 6.90804 16.0607 7.18934C16.342 7.47064 16.5 7.85218 16.5 8.25V12C16.5 12.3978 16.342 12.7794 16.0607 13.0607C15.7794 13.342 15.3978 13.5 15 13.5H13.5" stroke="white" stroke-width="1.5" stroke-linecap="round" stroke-linejoin="round"/>
<path d="M4.5 6.75V2.25C4.5 2.05109 4.57902 1.86032 4.71967 1.71967C4.86032 1.57902 5.05109 1.5 5.25 1.5H12.75C12.9489 1.5 13.1397 1.57902 13.2803 1.71967C13.421 1.86032 13.5 2.05109 13.5 2.25V6.75" stroke="white" stroke-width="1.5" stroke-linecap="round" stroke-linejoin="round"/>
<path d="M12.75 10.5H5.25C4.83579 10.5 4.5 10.8358 4.5 11.25V15.75C4.5 16.1642 4.83579 16.5 5.25 16.5H12.75C13.1642 16.5 13.5 16.1642 13.5 15.75V11.25C13.5 10.8358 13.1642 10.5 12.75 10.5Z" stroke="white" stroke-width="1.5" stroke-linecap="round" stroke-linejoin="round"/>
</g>
<defs>
<clipPath id="clip0_2042_20">
<rect width="18" height="18" fill="white"/>
</clipPath>
</defs>
</svg>
