<svg width="18" height="18" viewBox="0 0 18 18" fill="none" xmlns="http://www.w3.org/2000/svg">
<g clip-path="url(#clip0_1668_142)">
<path d="M13.5 6C13.5 8.70975 10.5983 11.5718 9.45525 12.5963C9.3245 12.6961 9.16453 12.7502 9 12.7502C8.83547 12.7502 8.6755 12.6961 8.54475 12.5963C7.4025 11.5718 4.5 8.70975 4.5 6C4.5 4.80653 4.97411 3.66193 5.81802 2.81802C6.66193 1.97411 7.80653 1.5 9 1.5C10.1935 1.5 11.3381 1.97411 12.182 2.81802C13.0259 3.66193 13.5 4.80653 13.5 6Z" stroke="black" stroke-width="1.5" stroke-linecap="round" stroke-linejoin="round"/>
<path d="M9 7.5C9.82843 7.5 10.5 6.82843 10.5 6C10.5 5.17157 9.82843 4.5 9 4.5C8.17157 4.5 7.5 5.17157 7.5 6C7.5 6.82843 8.17157 7.5 9 7.5Z" stroke="black" stroke-width="1.5" stroke-linecap="round" stroke-linejoin="round"/>
<path d="M6.53518 10.5H3.75268C3.59543 10.5001 3.44217 10.5496 3.31459 10.6415C3.187 10.7334 3.09153 10.8631 3.04168 11.0122L1.53868 15.5123C1.501 15.625 1.49066 15.7451 1.5085 15.8626C1.52634 15.9801 1.57186 16.0917 1.6413 16.1882C1.71074 16.2846 1.80211 16.3632 1.90789 16.4174C2.01367 16.4716 2.13082 16.4999 2.24968 16.5H15.7497C15.8685 16.4999 15.9855 16.4716 16.0912 16.4174C16.1969 16.3633 16.2882 16.2847 16.3577 16.1884C16.4271 16.092 16.4726 15.9805 16.4905 15.8631C16.5084 15.7457 16.4982 15.6257 16.4607 15.513L14.9607 11.013C14.9109 10.8636 14.8154 10.7336 14.6876 10.6416C14.5599 10.5495 14.4064 10.5 14.2489 10.5H11.4649" stroke="black" stroke-width="1.5" stroke-linecap="round" stroke-linejoin="round"/>
</g>
<defs>
<clipPath id="clip0_1668_142">
<rect width="18" height="18" fill="white"/>
</clipPath>
</defs>
</svg>
