<svg width="100" height="100" viewBox="0 0 100 100" fill="none" xmlns="http://www.w3.org/2000/svg">
<rect x="0.5" y="0.5" width="99" height="99" rx="49.5" fill="white"/>
<rect x="0.5" y="0.5" width="99" height="99" rx="49.5" stroke="#A6A6A6"/>
<path d="M41.4773 37.7273H45.6591V54.0909C45.6515 55.5909 45.3333 56.8826 44.7045 57.9659C44.0758 59.0417 43.197 59.8712 42.0682 60.4545C40.947 61.0303 39.6402 61.3182 38.1477 61.3182C36.7841 61.3182 35.5568 61.0758 34.4659 60.5909C33.3826 60.0985 32.5227 59.3712 31.8864 58.4091C31.25 57.447 30.9318 56.25 30.9318 54.8182H35.125C35.1326 55.447 35.2689 55.9886 35.5341 56.4432C35.8068 56.8977 36.1818 57.2462 36.6591 57.4886C37.1364 57.7311 37.6856 57.8523 38.3068 57.8523C38.9811 57.8523 39.553 57.7121 40.0227 57.4318C40.4924 57.1439 40.8485 56.7197 41.0909 56.1591C41.3409 55.5985 41.4697 54.9091 41.4773 54.0909V37.7273ZM62.8807 44.125C62.7746 43.1326 62.3277 42.3598 61.5398 41.8068C60.7595 41.2538 59.7443 40.9773 58.4943 40.9773C57.6155 40.9773 56.8617 41.1098 56.233 41.375C55.6042 41.6402 55.1231 42 54.7898 42.4545C54.4564 42.9091 54.286 43.428 54.2784 44.0114C54.2784 44.4962 54.3883 44.9167 54.608 45.2727C54.8352 45.6288 55.142 45.9318 55.5284 46.1818C55.9148 46.4242 56.3428 46.6288 56.8125 46.7955C57.2822 46.9621 57.7557 47.1023 58.233 47.2159L60.4148 47.7614C61.2936 47.9659 62.1383 48.2424 62.9489 48.5909C63.767 48.9394 64.4981 49.3788 65.142 49.9091C65.7936 50.4394 66.3087 51.0795 66.6875 51.8295C67.0663 52.5795 67.2557 53.4583 67.2557 54.4659C67.2557 55.8295 66.9072 57.0303 66.2102 58.0682C65.5133 59.0985 64.5057 59.9053 63.1875 60.4886C61.8769 61.0644 60.2898 61.3523 58.4261 61.3523C56.6155 61.3523 55.0436 61.072 53.7102 60.5114C52.3845 59.9508 51.3466 59.1326 50.5966 58.0568C49.8542 56.9811 49.4527 55.6705 49.392 54.125H53.5398C53.6004 54.9356 53.8504 55.6098 54.2898 56.1477C54.7292 56.6856 55.3011 57.0871 56.0057 57.3523C56.7178 57.6174 57.5133 57.75 58.392 57.75C59.3087 57.75 60.1117 57.6136 60.8011 57.3409C61.4981 57.0606 62.0436 56.6742 62.4375 56.1818C62.8314 55.6818 63.0322 55.0985 63.0398 54.4318C63.0322 53.8258 62.8542 53.3258 62.5057 52.9318C62.1572 52.5303 61.6686 52.197 61.0398 51.9318C60.4186 51.6591 59.6913 51.4167 58.858 51.2045L56.2102 50.5227C54.2936 50.0303 52.7784 49.2841 51.6648 48.2841C50.5587 47.2765 50.0057 45.9394 50.0057 44.2727C50.0057 42.9015 50.3769 41.7008 51.1193 40.6705C51.8693 39.6402 52.8883 38.8409 54.1761 38.2727C55.464 37.697 56.9223 37.4091 58.5511 37.4091C60.2027 37.4091 61.6496 37.697 62.892 38.2727C64.142 38.8409 65.1231 39.6326 65.8352 40.6477C66.5473 41.6553 66.9148 42.8144 66.9375 44.125H62.8807Z" fill="black"/>
</svg>
